<svg width="1354" height="719" viewBox="0 0 1354 719" fill="none" xmlns="http://www.w3.org/2000/svg">
<path d="M1260.76 117.746L1256.02 122.455L1243.48 134.943C1255.22 146.001 1262.6 161.646 1262.6 179.004C1262.6 212.419 1235.41 239.612 1201.99 239.612C1168.58 239.612 1141.39 212.419 1141.39 179.004C1141.39 161.641 1148.77 145.996 1160.51 134.943C1153.59 128.055 1147.18 121.677 1143.22 117.746C1127.1 133.224 1117 154.944 1117 179.009C1117 225.871 1155.13 264 1202 264C1248.86 264 1286.99 225.866 1286.99 179.009C1286.99 154.94 1276.88 133.224 1260.76 117.746Z" fill="#D6A99D"/>
<path d="M1197.36 150.984C1198.64 152.257 1200.31 152.898 1201.98 152.898C1203.65 152.898 1205.33 152.262 1206.61 150.984C1219.28 138.374 1253.71 104.113 1254.41 103.408C1268.92 88.9032 1268.92 65.3768 1254.41 50.8772C1247.16 43.6274 1237.66 40 1228.15 40C1218.69 40 1209.23 43.5931 1201.99 50.7744C1194.75 43.5931 1185.29 40 1175.83 40C1166.32 40 1156.81 43.6274 1149.55 50.8772C1135.05 65.3768 1135.05 88.9032 1149.55 103.408C1150.27 104.113 1184.69 138.379 1197.36 150.984Z" fill="#D6A99D"/>
<path d="M435.4 413.4C440 413.4 443.3 414.4 445.3 416.4C447.5 418.4 448.6 421 448.6 424.2C448.6 429.4 447 434 443.8 438C440.8 442 436 444.1 429.4 444.3C413.6 444.5 399.4 443.3 386.8 440.7C372.8 470.5 355.9 495.3 336.1 515.1C316.5 534.7 297.1 544.5 277.9 544.5C260.3 544.5 247.1 535.2 238.3 516.6C229.5 497.8 224.5 472.7 223.3 441.3C211.3 476.1 197.7 502 182.5 519C167.5 536 151.5 544.5 134.5 544.5C115.3 544.5 100.8 532.6 91 508.8C81.2 484.8 76.3 452.6 76.3 412.2C76.3 382.8 78.9 350.5 84.1 315.3C85.5 305.3 88 298.4 91.6 294.6C95.4 290.6 101.3 288.6 109.3 288.6C115.3 288.6 119.9 289.9 123.1 292.5C126.5 295.1 128.2 299.9 128.2 306.9C128.2 308.3 128 311 127.6 315C121.6 356 118.6 390.9 118.6 419.7C118.6 446.5 120.9 467.2 125.5 481.8C130.1 496.4 136.3 503.7 144.1 503.7C151.1 503.7 159.5 496.4 169.3 481.8C179.3 467 189.2 445.2 199 416.4C208.8 387.4 217.1 352.9 223.9 312.9C225.5 303.7 228.4 297.4 232.6 294C237 290.4 242.9 288.6 250.3 288.6C256.5 288.6 261 290 263.8 292.8C266.8 295.4 268.3 299.4 268.3 304.8C268.3 308 268.1 310.5 267.7 312.3C262.1 344.9 259.3 377.5 259.3 410.1C259.3 432.3 260 450 261.4 463.2C263 476.4 265.9 486.5 270.1 493.5C274.5 500.3 280.8 503.7 289 503.7C298.6 503.7 309.3 496.5 321.1 482.1C332.9 467.5 343.7 449.4 353.5 427.8C341.3 420.2 332.1 410.4 325.9 398.4C319.7 386.2 316.6 372.2 316.6 356.4C316.6 340.6 319 327.3 323.8 316.5C328.8 305.5 335.5 297.3 343.9 291.9C352.5 286.5 362 283.8 372.4 283.8C385.2 283.8 395.3 288.4 402.7 297.6C410.3 306.8 414.1 319.4 414.1 335.4C414.1 358 409.2 383.1 399.4 410.7C409.6 412.5 421.6 413.4 435.4 413.4ZM346.9 354.3C346.9 373.9 353.2 388.4 365.8 397.8C373.6 375.4 377.5 356.9 377.5 342.3C377.5 333.9 376.4 327.8 374.2 324C372 320 369 318 365.2 318C359.8 318 355.4 321.2 352 327.6C348.6 333.8 346.9 342.7 346.9 354.3ZM553.239 476.1C555.839 476.1 557.839 477.3 559.239 479.7C560.839 482.1 561.639 485.4 561.639 489.6C561.639 497.6 559.739 503.8 555.939 508.2C548.539 517.2 538.039 525.5 524.439 533.1C511.039 540.7 496.639 544.5 481.239 544.5C460.239 544.5 443.939 538.8 432.339 527.4C420.739 516 414.939 500.4 414.939 480.6C414.939 466.8 417.839 454 423.639 442.2C429.439 430.2 437.439 420.7 447.639 413.7C458.039 406.7 469.739 403.2 482.739 403.2C494.339 403.2 503.639 406.7 510.639 413.7C517.639 420.5 521.139 429.8 521.139 441.6C521.139 455.4 516.139 467.3 506.139 477.3C496.339 487.1 479.639 494.9 456.039 500.7C461.039 509.9 470.539 514.5 484.539 514.5C493.539 514.5 503.739 511.4 515.139 505.2C526.739 498.8 536.739 490.5 545.139 480.3C547.539 477.5 550.239 476.1 553.239 476.1ZM477.639 432.6C470.239 432.6 463.939 436.9 458.739 445.5C453.739 454.1 451.239 464.5 451.239 476.7V477.3C463.039 474.5 472.339 470.3 479.139 464.7C485.939 459.1 489.339 452.6 489.339 445.2C489.339 441.4 488.239 438.4 486.039 436.2C484.039 433.8 481.239 432.6 477.639 432.6ZM706.148 476.1C708.748 476.1 710.748 477.3 712.148 479.7C713.748 482.1 714.548 485.4 714.548 489.6C714.548 497.6 712.648 503.8 708.848 508.2C700.648 518.2 691.648 526.8 681.848 534C672.048 541 662.348 544.5 652.748 544.5C637.548 544.5 625.948 535.6 617.948 517.8C609.548 528.4 602.148 535.5 595.748 539.1C589.548 542.7 582.248 544.5 573.848 544.5C561.648 544.5 551.548 540 543.548 531C535.748 521.8 531.848 509.9 531.848 495.3C531.848 479.3 535.248 464.5 542.048 450.9C548.848 437.1 558.148 425.9 569.948 417.3C581.948 408.5 595.348 403.3 610.148 401.7C613.948 362.9 621.148 329.8 631.748 302.4C642.548 274.8 656.648 261 674.048 261C682.648 261 689.748 264.9 695.348 272.7C701.148 280.5 704.048 292.3 704.048 308.1C704.048 330.5 698.548 356.7 687.548 386.7C676.548 416.7 661.848 447.5 643.448 479.1C644.248 490.7 645.948 499 648.548 504C651.348 509 654.848 511.5 659.048 511.5C664.448 511.5 669.948 509.1 675.548 504.3C681.148 499.5 688.648 491.5 698.048 480.3C700.448 477.5 703.148 476.1 706.148 476.1ZM670.748 290.4C666.948 290.4 663.148 297.2 659.348 310.8C655.548 324.2 652.248 341.8 649.448 363.6C646.848 385.4 644.948 408.2 643.748 432C666.148 383.2 677.348 344 677.348 314.4C677.348 306.8 676.648 300.9 675.248 296.7C674.048 292.5 672.548 290.4 670.748 290.4ZM584.348 514.2C588.148 514.2 591.948 512.7 595.748 509.7C599.548 506.5 604.348 500.7 610.148 492.3C608.148 481.5 607.148 469.4 607.148 456C607.148 451.2 607.348 443.4 607.748 432.6C596.748 436 587.548 443.4 580.148 454.8C572.948 466 569.348 478.5 569.348 492.3C569.348 506.9 574.348 514.2 584.348 514.2ZM803.842 476.1C806.442 476.1 808.442 477.3 809.842 479.7C811.442 482.1 812.242 485.4 812.242 489.6C812.242 497.6 810.342 503.8 806.542 508.2C797.942 518.8 788.542 527.5 778.342 534.3C768.342 541.1 756.942 544.5 744.142 544.5C726.542 544.5 713.442 536.5 704.842 520.5C696.442 504.5 692.242 483.8 692.242 458.4C692.242 434 695.342 406.2 701.542 375C707.942 343.8 717.242 317 729.442 294.6C741.842 272.2 756.542 261 773.542 261C783.142 261 790.642 265.5 796.042 274.5C801.642 283.3 804.442 296 804.442 312.6C804.442 336.4 797.842 364 784.642 395.4C771.442 426.8 753.542 457.9 730.942 488.7C732.342 496.9 734.642 502.8 737.842 506.4C741.042 509.8 745.242 511.5 750.442 511.5C758.642 511.5 765.842 509.2 772.042 504.6C778.242 499.8 786.142 491.7 795.742 480.3C798.142 477.5 800.842 476.1 803.842 476.1ZM766.942 290.7C762.342 290.7 757.142 299 751.342 315.6C745.542 332.2 740.442 352.8 736.042 377.4C731.642 402 729.242 425.6 728.842 448.2C743.042 424.8 754.342 401.4 762.742 378C771.142 354.4 775.342 332.9 775.342 313.5C775.342 298.3 772.542 290.7 766.942 290.7ZM827.294 383.4C818.894 383.4 812.594 381.5 808.394 377.7C804.194 373.7 802.094 368.2 802.094 361.2C802.094 354.2 804.794 348.4 810.194 343.8C815.794 339 822.694 336.6 830.894 336.6C838.294 336.6 844.294 338.4 848.894 342C853.494 345.6 855.794 350.7 855.794 357.3C855.794 365.3 853.194 371.7 847.994 376.5C842.794 381.1 835.894 383.4 827.294 383.4ZM824.894 544.5C811.894 544.5 802.394 539.9 796.394 530.7C790.594 521.5 787.694 509.3 787.694 494.1C787.694 485.1 788.794 473.6 790.994 459.6C793.394 445.4 796.394 432.2 799.994 420C801.794 413.6 804.194 409.2 807.194 406.8C810.194 404.4 814.994 403.2 821.594 403.2C831.794 403.2 836.894 406.6 836.894 413.4C836.894 418.4 834.994 430 831.194 448.2C826.394 470.2 823.994 485.1 823.994 492.9C823.994 498.9 824.794 503.5 826.394 506.7C827.994 509.9 830.694 511.5 834.494 511.5C838.094 511.5 842.594 509 847.994 504C853.394 499 860.594 491.1 869.594 480.3C871.994 477.5 874.694 476.1 877.694 476.1C880.294 476.1 882.294 477.3 883.694 479.7C885.294 482.1 886.094 485.4 886.094 489.6C886.094 497.6 884.194 503.8 880.394 508.2C860.594 532.4 842.094 544.5 824.894 544.5ZM917.622 551.1C907.222 551.1 899.222 548.7 893.622 543.9C888.222 539.1 885.522 533.7 885.522 527.7C885.522 522.5 887.422 518 891.222 514.2C895.022 510.4 900.622 508.5 908.022 508.5C910.622 508.5 913.622 508.8 917.022 509.4C920.622 509.8 923.322 510.1 925.122 510.3C924.922 505.1 923.722 500.2 921.522 495.6C919.522 491 916.922 486.6 913.722 482.4C910.522 478 907.522 474.2 904.722 471C898.522 482.8 892.322 492.6 886.122 500.4C880.122 508.2 873.522 515.6 866.322 522.6C862.722 526.2 858.922 528 854.922 528C851.722 528 849.122 526.9 847.122 524.7C845.122 522.3 844.122 519.4 844.122 516C844.122 512 845.522 508.3 848.322 504.9L852.222 500.1C863.222 486.5 871.522 475.3 877.122 466.5C880.522 460.7 884.522 453 889.122 443.4C893.722 433.6 898.222 423.5 902.622 413.1C906.422 404.3 914.322 399.9 926.322 399.9C931.922 399.9 935.822 400.4 938.022 401.4C940.222 402.4 941.322 404 941.322 406.2C941.322 407.4 940.922 409.3 940.122 411.9C939.322 414.5 938.222 417.1 936.822 419.7C933.222 426.9 931.422 433 931.422 438C931.422 441 932.422 444.3 934.422 447.9C936.622 451.5 939.922 456 944.322 461.4C950.722 469.8 955.522 477 958.722 483C962.122 488.8 963.822 495.2 963.822 502.2C963.822 504.2 963.622 507 963.222 510.6C973.022 506.8 984.522 496.7 997.722 480.3C1000.12 477.5 1002.82 476.1 1005.82 476.1C1008.42 476.1 1010.42 477.3 1011.82 479.7C1013.42 482.1 1014.22 485.4 1014.22 489.6C1014.22 497.2 1012.32 503.4 1008.52 508.2C998.522 520.6 988.922 529.1 979.722 533.7C970.722 538.1 959.522 540.5 946.122 540.9C938.122 547.7 928.622 551.1 917.622 551.1ZM1039.35 431.7C1038.95 441.7 1038.75 449.5 1038.75 455.1C1038.75 469.5 1039.45 480.8 1040.85 489C1042.45 497 1044.95 502.8 1048.35 506.4C1051.95 509.8 1056.85 511.5 1063.05 511.5C1066.25 511.5 1070.05 510.5 1074.45 508.5C1078.85 506.5 1082.85 503.9 1086.45 500.7C1088.65 498.7 1090.85 497.7 1093.05 497.7C1095.45 497.7 1097.35 499.1 1098.75 501.9C1100.35 504.5 1101.15 507.7 1101.15 511.5C1101.15 515.3 1100.35 519 1098.75 522.6C1097.35 526.2 1095.15 529.2 1092.15 531.6C1081.75 540.2 1069.95 544.5 1056.75 544.5C1037.75 544.5 1023.85 536.6 1015.05 520.8C1006.25 504.8 1001.85 484 1001.85 458.4C1001.85 449.6 1002.15 440.7 1002.75 431.7H991.049C985.049 431.7 980.949 430.6 978.749 428.4C976.749 426.2 975.749 422.7 975.749 417.9C975.749 406.7 980.249 401.1 989.249 401.1H1006.35C1009.75 379.1 1014.95 359 1021.95 340.8C1028.95 322.6 1037.35 308.1 1047.15 297.3C1057.15 286.5 1067.85 281.1 1079.25 281.1C1087.65 281.1 1094.25 284.8 1099.05 292.2C1103.85 299.6 1106.25 308.9 1106.25 320.1C1106.25 351.1 1093.25 378.1 1067.25 401.1H1100.85C1104.05 401.1 1106.35 401.8 1107.75 403.2C1109.15 404.6 1109.85 407.2 1109.85 411C1109.85 424.8 1098.55 431.7 1075.95 431.7H1039.35ZM1071.15 309.9C1068.15 309.9 1064.75 313.7 1060.95 321.3C1057.35 328.7 1053.85 339.1 1050.45 352.5C1047.25 365.7 1044.55 380.4 1042.35 396.6C1054.15 386.4 1062.95 375 1068.75 362.4C1074.75 349.6 1077.75 338 1077.75 327.6C1077.75 315.8 1075.55 309.9 1071.15 309.9Z" fill="#FBF3D5"/>
<rect x="40" y="4" width="48.4375" height="30" rx="3" fill="#444444"/>
<rect x="40.5" y="4.5" width="47.4375" height="29" rx="2.5" stroke="white" stroke-opacity="0.0980392"/>
<path d="M47.7656 18.3906V22H46.8438V14H47.7656V16.9375H47.8438C47.9844 16.6276 48.1953 16.3815 48.4766 16.1992C48.7604 16.0143 49.138 15.9219 49.6094 15.9219C50.0182 15.9219 50.3763 16.0039 50.6836 16.168C50.9909 16.3294 51.2292 16.5781 51.3984 16.9141C51.5703 17.2474 51.6563 17.6719 51.6563 18.1875V22H50.7344V18.25C50.7344 17.7734 50.6107 17.4049 50.3633 17.1445C50.1185 16.8815 49.7786 16.75 49.3438 16.75C49.0417 16.75 48.7708 16.8138 48.5313 16.9414C48.2943 17.069 48.1068 17.2552 47.9688 17.5C47.8333 17.7448 47.7656 18.0417 47.7656 18.3906ZM55.8584 22.125C55.2803 22.125 54.7816 21.9974 54.3623 21.7422C53.9456 21.4844 53.624 21.125 53.3975 20.6641C53.1735 20.2005 53.0615 19.6615 53.0615 19.0469C53.0615 18.4323 53.1735 17.8906 53.3975 17.4219C53.624 16.9505 53.9391 16.5833 54.3428 16.3203C54.749 16.0547 55.223 15.9219 55.7646 15.9219C56.0771 15.9219 56.3857 15.974 56.6904 16.0781C56.9951 16.1823 57.2725 16.3516 57.5225 16.5859C57.7725 16.8177 57.9717 17.125 58.1201 17.5078C58.2686 17.8906 58.3428 18.362 58.3428 18.9219V19.3125H53.7178V18.5156H57.4053C57.4053 18.1771 57.3376 17.875 57.2021 17.6094C57.0693 17.3437 56.8792 17.1341 56.6318 16.9805C56.387 16.8268 56.098 16.75 55.7646 16.75C55.3975 16.75 55.0798 16.8411 54.8115 17.0234C54.5459 17.2031 54.3415 17.4375 54.1982 17.7266C54.055 18.0156 53.9834 18.3255 53.9834 18.6562V19.1875C53.9834 19.6406 54.0615 20.0247 54.2178 20.3398C54.3766 20.6523 54.5967 20.8906 54.8779 21.0547C55.1592 21.2161 55.486 21.2969 55.8584 21.2969C56.1006 21.2969 56.3193 21.263 56.5146 21.1953C56.7126 21.125 56.8831 21.0208 57.0264 20.8828C57.1696 20.7422 57.2803 20.5677 57.3584 20.3594L58.249 20.6094C58.1553 20.9115 57.9977 21.1771 57.7764 21.4062C57.555 21.6328 57.2816 21.8099 56.9561 21.9375C56.6305 22.0625 56.2646 22.125 55.8584 22.125ZM61.5107 22.1406C61.1305 22.1406 60.7855 22.069 60.4756 21.9258C60.1657 21.7799 59.9196 21.5703 59.7373 21.2969C59.555 21.0208 59.4639 20.6875 59.4639 20.2969C59.4639 19.9531 59.5316 19.6745 59.667 19.4609C59.8024 19.2448 59.9834 19.0755 60.21 18.9531C60.4365 18.8307 60.6865 18.7396 60.96 18.6797C61.236 18.6172 61.5133 18.5677 61.792 18.5313C62.1566 18.4844 62.4521 18.4492 62.6787 18.4258C62.9079 18.3997 63.0745 18.3568 63.1787 18.2969C63.2855 18.237 63.3389 18.1328 63.3389 17.9844V17.9531C63.3389 17.5677 63.2334 17.2682 63.0225 17.0547C62.8141 16.8411 62.4977 16.7344 62.0732 16.7344C61.6331 16.7344 61.2881 16.8307 61.0381 17.0234C60.7881 17.2161 60.6123 17.4219 60.5107 17.6406L59.6357 17.3281C59.792 16.9635 60.0003 16.6797 60.2607 16.4766C60.5238 16.2708 60.8102 16.1276 61.1201 16.0469C61.4326 15.9635 61.7399 15.9219 62.042 15.9219C62.2347 15.9219 62.4561 15.9453 62.7061 15.9922C62.9587 16.0365 63.2021 16.1289 63.4365 16.2695C63.6735 16.4102 63.8701 16.6224 64.0264 16.9062C64.1826 17.1901 64.2607 17.5703 64.2607 18.0469V22H63.3389V21.1875H63.292C63.2295 21.3177 63.1253 21.457 62.9795 21.6055C62.8337 21.7539 62.6396 21.8802 62.3975 21.9844C62.1553 22.0885 61.8597 22.1406 61.5107 22.1406ZM61.6514 21.3125C62.016 21.3125 62.3232 21.2409 62.5732 21.0977C62.8258 20.9544 63.016 20.7695 63.1436 20.543C63.2738 20.3164 63.3389 20.0781 63.3389 19.8281V18.9844C63.2998 19.0312 63.2139 19.0742 63.0811 19.1133C62.9508 19.1497 62.7998 19.1823 62.6279 19.2109C62.4587 19.237 62.2933 19.2604 62.1318 19.2812C61.973 19.2995 61.8441 19.3151 61.7451 19.3281C61.5055 19.3594 61.2816 19.4102 61.0732 19.4805C60.8675 19.5482 60.7008 19.651 60.5732 19.7891C60.4482 19.9245 60.3857 20.1094 60.3857 20.3437C60.3857 20.6641 60.5042 20.9062 60.7412 21.0703C60.9808 21.2318 61.2842 21.3125 61.6514 21.3125ZM68.209 22.125C67.709 22.125 67.2676 21.9987 66.8848 21.7461C66.502 21.4909 66.2025 21.1315 65.9863 20.668C65.7702 20.2018 65.6621 19.651 65.6621 19.0156C65.6621 18.3854 65.7702 17.8385 65.9863 17.375C66.2025 16.9115 66.5033 16.5534 66.8887 16.3008C67.2741 16.0482 67.7194 15.9219 68.2246 15.9219C68.6152 15.9219 68.9238 15.987 69.1504 16.1172C69.3796 16.2448 69.554 16.3906 69.6738 16.5547C69.7962 16.7161 69.8913 16.849 69.959 16.9531H70.0371V14H70.959V22H70.0684V21.0781H69.959C69.8913 21.1875 69.7949 21.3255 69.6699 21.4922C69.5449 21.6562 69.3665 21.8034 69.1348 21.9336C68.903 22.0612 68.5944 22.125 68.209 22.125ZM68.334 21.2969C68.7038 21.2969 69.0163 21.2005 69.2715 21.0078C69.5267 20.8125 69.7207 20.543 69.8535 20.1992C69.9863 19.8529 70.0527 19.4531 70.0527 19C70.0527 18.5521 69.9876 18.1602 69.8574 17.8242C69.7272 17.4857 69.5345 17.2227 69.2793 17.0352C69.0241 16.8451 68.709 16.75 68.334 16.75C67.9434 16.75 67.6178 16.8503 67.3574 17.0508C67.0996 17.2487 66.9056 17.5182 66.7754 17.8594C66.6478 18.1979 66.584 18.5781 66.584 19C66.584 19.4271 66.6491 19.8151 66.7793 20.1641C66.9121 20.5104 67.1074 20.7865 67.3652 20.9922C67.6257 21.1953 67.9486 21.2969 68.334 21.2969ZM75.291 22.125C74.7129 22.125 74.2142 21.9974 73.7949 21.7422C73.3783 21.4844 73.0566 21.125 72.8301 20.6641C72.6061 20.2005 72.4941 19.6615 72.4941 19.0469C72.4941 18.4323 72.6061 17.8906 72.8301 17.4219C73.0566 16.9505 73.3717 16.5833 73.7754 16.3203C74.1816 16.0547 74.6556 15.9219 75.1973 15.9219C75.5098 15.9219 75.8184 15.974 76.123 16.0781C76.4277 16.1823 76.7051 16.3516 76.9551 16.5859C77.2051 16.8177 77.4043 17.125 77.5527 17.5078C77.7012 17.8906 77.7754 18.362 77.7754 18.9219V19.3125H73.1504V18.5156H76.8379C76.8379 18.1771 76.7702 17.875 76.6348 17.6094C76.502 17.3437 76.3118 17.1341 76.0645 16.9805C75.8197 16.8268 75.5306 16.75 75.1973 16.75C74.8301 16.75 74.5124 16.8411 74.2441 17.0234C73.9785 17.2031 73.7741 17.4375 73.6309 17.7266C73.4876 18.0156 73.416 18.3255 73.416 18.6562V19.1875C73.416 19.6406 73.4941 20.0247 73.6504 20.3398C73.8092 20.6523 74.0293 20.8906 74.3105 21.0547C74.5918 21.2161 74.9186 21.2969 75.291 21.2969C75.5332 21.2969 75.752 21.263 75.9473 21.1953C76.1452 21.125 76.3158 21.0208 76.459 20.8828C76.6022 20.7422 76.7129 20.5677 76.791 20.3594L77.6816 20.6094C77.5879 20.9115 77.4303 21.1771 77.209 21.4062C76.9876 21.6328 76.7142 21.8099 76.3887 21.9375C76.0632 22.0625 75.6973 22.125 75.291 22.125ZM79.1777 22V16H80.0684V16.9062H80.1309C80.2402 16.6094 80.4382 16.3685 80.7246 16.1836C81.0111 15.9987 81.334 15.9062 81.6934 15.9062C81.7611 15.9062 81.8457 15.9076 81.9473 15.9102C82.0488 15.9128 82.1257 15.9167 82.1777 15.9219V16.8594C82.1465 16.8516 82.0749 16.8398 81.9629 16.8242C81.8535 16.806 81.7376 16.7969 81.6152 16.7969C81.3236 16.7969 81.0632 16.8581 80.834 16.9805C80.6074 17.1003 80.4277 17.2669 80.2949 17.4805C80.1647 17.6914 80.0996 17.9323 80.0996 18.2031V22H79.1777Z" fill="white"/>
</svg>
