<svg width="1248" height="639" viewBox="0 0 1248 639" fill="none" xmlns="http://www.w3.org/2000/svg">
<path d="M395.4 373.4C400 373.4 403.3 374.4 405.3 376.4C407.5 378.4 408.6 381 408.6 384.2C408.6 389.4 407 394 403.8 398C400.8 402 396 404.1 389.4 404.3C373.6 404.5 359.4 403.3 346.8 400.7C332.8 430.5 315.9 455.3 296.1 475.1C276.5 494.7 257.1 504.5 237.9 504.5C220.3 504.5 207.1 495.2 198.3 476.6C189.5 457.8 184.5 432.7 183.3 401.3C171.3 436.1 157.7 462 142.5 479C127.5 496 111.5 504.5 94.5 504.5C75.3 504.5 60.8 492.6 51 468.8C41.2 444.8 36.3 412.6 36.3 372.2C36.3 342.8 38.9 310.5 44.1 275.3C45.5 265.3 48 258.4 51.6 254.6C55.4 250.6 61.3 248.6 69.3 248.6C75.3 248.6 79.9 249.9 83.1 252.5C86.5 255.1 88.2 259.9 88.2 266.9C88.2 268.3 88 271 87.6 275C81.6 316 78.6 350.9 78.6 379.7C78.6 406.5 80.9 427.2 85.5 441.8C90.1 456.4 96.3 463.7 104.1 463.7C111.1 463.7 119.5 456.4 129.3 441.8C139.3 427 149.2 405.2 159 376.4C168.8 347.4 177.1 312.9 183.9 272.9C185.5 263.7 188.4 257.4 192.6 254C197 250.4 202.9 248.6 210.3 248.6C216.5 248.6 221 250 223.8 252.8C226.8 255.4 228.3 259.4 228.3 264.8C228.3 268 228.1 270.5 227.7 272.3C222.1 304.9 219.3 337.5 219.3 370.1C219.3 392.3 220 410 221.4 423.2C223 436.4 225.9 446.5 230.1 453.5C234.5 460.3 240.8 463.7 249 463.7C258.6 463.7 269.3 456.5 281.1 442.1C292.9 427.5 303.7 409.4 313.5 387.8C301.3 380.2 292.1 370.4 285.9 358.4C279.7 346.2 276.6 332.2 276.6 316.4C276.6 300.6 279 287.3 283.8 276.5C288.8 265.5 295.5 257.3 303.9 251.9C312.5 246.5 322 243.8 332.4 243.8C345.2 243.8 355.3 248.4 362.7 257.6C370.3 266.8 374.1 279.4 374.1 295.4C374.1 318 369.2 343.1 359.4 370.7C369.6 372.5 381.6 373.4 395.4 373.4ZM306.9 314.3C306.9 333.9 313.2 348.4 325.8 357.8C333.6 335.4 337.5 316.9 337.5 302.3C337.5 293.9 336.4 287.8 334.2 284C332 280 329 278 325.2 278C319.8 278 315.4 281.2 312 287.6C308.6 293.8 306.9 302.7 306.9 314.3ZM513.239 436.1C515.839 436.1 517.839 437.3 519.239 439.7C520.839 442.1 521.639 445.4 521.639 449.6C521.639 457.6 519.739 463.8 515.939 468.2C508.539 477.2 498.039 485.5 484.439 493.1C471.039 500.7 456.639 504.5 441.239 504.5C420.239 504.5 403.939 498.8 392.339 487.4C380.739 476 374.939 460.4 374.939 440.6C374.939 426.8 377.839 414 383.639 402.2C389.439 390.2 397.439 380.7 407.639 373.7C418.039 366.7 429.739 363.2 442.739 363.2C454.339 363.2 463.639 366.7 470.639 373.7C477.639 380.5 481.139 389.8 481.139 401.6C481.139 415.4 476.139 427.3 466.139 437.3C456.339 447.1 439.639 454.9 416.039 460.7C421.039 469.9 430.539 474.5 444.539 474.5C453.539 474.5 463.739 471.4 475.139 465.2C486.739 458.8 496.739 450.5 505.139 440.3C507.539 437.5 510.239 436.1 513.239 436.1ZM437.639 392.6C430.239 392.6 423.939 396.9 418.739 405.5C413.739 414.1 411.239 424.5 411.239 436.7V437.3C423.039 434.5 432.339 430.3 439.139 424.7C445.939 419.1 449.339 412.6 449.339 405.2C449.339 401.4 448.239 398.4 446.039 396.2C444.039 393.8 441.239 392.6 437.639 392.6ZM666.148 436.1C668.748 436.1 670.748 437.3 672.148 439.7C673.748 442.1 674.548 445.4 674.548 449.6C674.548 457.6 672.648 463.8 668.848 468.2C660.648 478.2 651.648 486.8 641.848 494C632.048 501 622.348 504.5 612.748 504.5C597.548 504.5 585.948 495.6 577.948 477.8C569.548 488.4 562.148 495.5 555.748 499.1C549.548 502.7 542.248 504.5 533.848 504.5C521.648 504.5 511.548 500 503.548 491C495.748 481.8 491.848 469.9 491.848 455.3C491.848 439.3 495.248 424.5 502.048 410.9C508.848 397.1 518.148 385.9 529.948 377.3C541.948 368.5 555.348 363.3 570.148 361.7C573.948 322.9 581.148 289.8 591.748 262.4C602.548 234.8 616.648 221 634.048 221C642.648 221 649.748 224.9 655.348 232.7C661.148 240.5 664.048 252.3 664.048 268.1C664.048 290.5 658.548 316.7 647.548 346.7C636.548 376.7 621.848 407.5 603.448 439.1C604.248 450.7 605.948 459 608.548 464C611.348 469 614.848 471.5 619.048 471.5C624.448 471.5 629.948 469.1 635.548 464.3C641.148 459.5 648.648 451.5 658.048 440.3C660.448 437.5 663.148 436.1 666.148 436.1ZM630.748 250.4C626.948 250.4 623.148 257.2 619.348 270.8C615.548 284.2 612.248 301.8 609.448 323.6C606.848 345.4 604.948 368.2 603.748 392C626.148 343.2 637.348 304 637.348 274.4C637.348 266.8 636.648 260.9 635.248 256.7C634.048 252.5 632.548 250.4 630.748 250.4ZM544.348 474.2C548.148 474.2 551.948 472.7 555.748 469.7C559.548 466.5 564.348 460.7 570.148 452.3C568.148 441.5 567.148 429.4 567.148 416C567.148 411.2 567.348 403.4 567.748 392.6C556.748 396 547.548 403.4 540.148 414.8C532.948 426 529.348 438.5 529.348 452.3C529.348 466.9 534.348 474.2 544.348 474.2ZM763.842 436.1C766.442 436.1 768.442 437.3 769.842 439.7C771.442 442.1 772.242 445.4 772.242 449.6C772.242 457.6 770.342 463.8 766.542 468.2C757.942 478.8 748.542 487.5 738.342 494.3C728.342 501.1 716.942 504.5 704.142 504.5C686.542 504.5 673.442 496.5 664.842 480.5C656.442 464.5 652.242 443.8 652.242 418.4C652.242 394 655.342 366.2 661.542 335C667.942 303.8 677.242 277 689.442 254.6C701.842 232.2 716.542 221 733.542 221C743.142 221 750.642 225.5 756.042 234.5C761.642 243.3 764.442 256 764.442 272.6C764.442 296.4 757.842 324 744.642 355.4C731.442 386.8 713.542 417.9 690.942 448.7C692.342 456.9 694.642 462.8 697.842 466.4C701.042 469.8 705.242 471.5 710.442 471.5C718.642 471.5 725.842 469.2 732.042 464.6C738.242 459.8 746.142 451.7 755.742 440.3C758.142 437.5 760.842 436.1 763.842 436.1ZM726.942 250.7C722.342 250.7 717.142 259 711.342 275.6C705.542 292.2 700.442 312.8 696.042 337.4C691.642 362 689.242 385.6 688.842 408.2C703.042 384.8 714.342 361.4 722.742 338C731.142 314.4 735.342 292.9 735.342 273.5C735.342 258.3 732.542 250.7 726.942 250.7ZM787.294 343.4C778.894 343.4 772.594 341.5 768.394 337.7C764.194 333.7 762.094 328.2 762.094 321.2C762.094 314.2 764.794 308.4 770.194 303.8C775.794 299 782.694 296.6 790.894 296.6C798.294 296.6 804.294 298.4 808.894 302C813.494 305.6 815.794 310.7 815.794 317.3C815.794 325.3 813.194 331.7 807.994 336.5C802.794 341.1 795.894 343.4 787.294 343.4ZM784.894 504.5C771.894 504.5 762.394 499.9 756.394 490.7C750.594 481.5 747.694 469.3 747.694 454.1C747.694 445.1 748.794 433.6 750.994 419.6C753.394 405.4 756.394 392.2 759.994 380C761.794 373.6 764.194 369.2 767.194 366.8C770.194 364.4 774.994 363.2 781.594 363.2C791.794 363.2 796.894 366.6 796.894 373.4C796.894 378.4 794.994 390 791.194 408.2C786.394 430.2 783.994 445.1 783.994 452.9C783.994 458.9 784.794 463.5 786.394 466.7C787.994 469.9 790.694 471.5 794.494 471.5C798.094 471.5 802.594 469 807.994 464C813.394 459 820.594 451.1 829.594 440.3C831.994 437.5 834.694 436.1 837.694 436.1C840.294 436.1 842.294 437.3 843.694 439.7C845.294 442.1 846.094 445.4 846.094 449.6C846.094 457.6 844.194 463.8 840.394 468.2C820.594 492.4 802.094 504.5 784.894 504.5ZM877.622 511.1C867.222 511.1 859.222 508.7 853.622 503.9C848.222 499.1 845.522 493.7 845.522 487.7C845.522 482.5 847.422 478 851.222 474.2C855.022 470.4 860.622 468.5 868.022 468.5C870.622 468.5 873.622 468.8 877.022 469.4C880.622 469.8 883.322 470.1 885.122 470.3C884.922 465.1 883.722 460.2 881.522 455.6C879.522 451 876.922 446.6 873.722 442.4C870.522 438 867.522 434.2 864.722 431C858.522 442.8 852.322 452.6 846.122 460.4C840.122 468.2 833.522 475.6 826.322 482.6C822.722 486.2 818.922 488 814.922 488C811.722 488 809.122 486.9 807.122 484.7C805.122 482.3 804.122 479.4 804.122 476C804.122 472 805.522 468.3 808.322 464.9L812.222 460.1C823.222 446.5 831.522 435.3 837.122 426.5C840.522 420.7 844.522 413 849.122 403.4C853.722 393.6 858.222 383.5 862.622 373.1C866.422 364.3 874.322 359.9 886.322 359.9C891.922 359.9 895.822 360.4 898.022 361.4C900.222 362.4 901.322 364 901.322 366.2C901.322 367.4 900.922 369.3 900.122 371.9C899.322 374.5 898.222 377.1 896.822 379.7C893.222 386.9 891.422 393 891.422 398C891.422 401 892.422 404.3 894.422 407.9C896.622 411.5 899.922 416 904.322 421.4C910.722 429.8 915.522 437 918.722 443C922.122 448.8 923.822 455.2 923.822 462.2C923.822 464.2 923.622 467 923.222 470.6C933.022 466.8 944.522 456.7 957.722 440.3C960.122 437.5 962.822 436.1 965.822 436.1C968.422 436.1 970.422 437.3 971.822 439.7C973.422 442.1 974.222 445.4 974.222 449.6C974.222 457.2 972.322 463.4 968.522 468.2C958.522 480.6 948.922 489.1 939.722 493.7C930.722 498.1 919.522 500.5 906.122 500.9C898.122 507.7 888.622 511.1 877.622 511.1ZM999.349 391.7C998.949 401.7 998.749 409.5 998.749 415.1C998.749 429.5 999.449 440.8 1000.85 449C1002.45 457 1004.95 462.8 1008.35 466.4C1011.95 469.8 1016.85 471.5 1023.05 471.5C1026.25 471.5 1030.05 470.5 1034.45 468.5C1038.85 466.5 1042.85 463.9 1046.45 460.7C1048.65 458.7 1050.85 457.7 1053.05 457.7C1055.45 457.7 1057.35 459.1 1058.75 461.9C1060.35 464.5 1061.15 467.7 1061.15 471.5C1061.15 475.3 1060.35 479 1058.75 482.6C1057.35 486.2 1055.15 489.2 1052.15 491.6C1041.75 500.2 1029.95 504.5 1016.75 504.5C997.749 504.5 983.849 496.6 975.049 480.8C966.249 464.8 961.849 444 961.849 418.4C961.849 409.6 962.149 400.7 962.749 391.7H951.049C945.049 391.7 940.949 390.6 938.749 388.4C936.749 386.2 935.749 382.7 935.749 377.9C935.749 366.7 940.249 361.1 949.249 361.1H966.349C969.749 339.1 974.949 319 981.949 300.8C988.949 282.6 997.349 268.1 1007.15 257.3C1017.15 246.5 1027.85 241.1 1039.25 241.1C1047.65 241.1 1054.25 244.8 1059.05 252.2C1063.85 259.6 1066.25 268.9 1066.25 280.1C1066.25 311.1 1053.25 338.1 1027.25 361.1H1060.85C1064.05 361.1 1066.35 361.8 1067.75 363.2C1069.15 364.6 1069.85 367.2 1069.85 371C1069.85 384.8 1058.55 391.7 1035.95 391.7H999.349ZM1031.15 269.9C1028.15 269.9 1024.75 273.7 1020.95 281.3C1017.35 288.7 1013.85 299.1 1010.45 312.5C1007.25 325.7 1004.55 340.4 1002.35 356.6C1014.15 346.4 1022.95 335 1028.75 322.4C1034.75 309.6 1037.75 298 1037.75 287.6C1037.75 275.8 1035.55 269.9 1031.15 269.9Z" fill="#DC3C22"/>
<path d="M1221.76 77.7457L1217.02 82.4549L1204.48 94.9426C1216.22 106.001 1223.6 121.646 1223.6 139.004C1223.6 172.419 1196.41 199.612 1162.99 199.612C1129.58 199.612 1102.39 172.419 1102.39 139.004C1102.39 121.641 1109.77 105.996 1121.51 94.9426C1114.59 88.0551 1108.18 81.6766 1104.22 77.7457C1088.1 93.2244 1078 114.944 1078 139.009C1078 185.871 1116.13 224 1163 224C1209.86 224 1247.99 185.866 1247.99 139.009C1247.99 114.94 1237.88 93.2244 1221.76 77.7457Z" fill="#EAC8A6"/>
<path d="M1158.36 110.984C1159.64 112.257 1161.31 112.898 1162.98 112.898C1164.66 112.898 1166.33 112.262 1167.61 110.984C1180.28 98.3742 1214.71 64.1126 1215.41 63.4077C1229.92 48.9032 1229.92 25.3768 1215.41 10.8772C1208.16 3.62735 1198.66 0 1189.15 0C1179.69 0 1170.23 3.59308 1162.99 10.7744C1155.75 3.59308 1146.29 0 1136.83 0C1127.32 0 1117.81 3.62735 1110.55 10.8772C1096.05 25.3768 1096.05 48.9032 1110.55 63.4077C1111.27 64.1126 1145.69 98.3791 1158.36 110.984Z" fill="#3D74B6"/>
</svg>
