<svg width="1104" height="1104" viewBox="0 0 1104 1104" fill="none" xmlns="http://www.w3.org/2000/svg">
<rect x="40" y="40" width="1024" height="1024" rx="24" fill="#D6A99D"/>
<path d="M935.8 562.8C945 562.8 951.6 564.8 955.6 568.8C960 572.8 962.2 578 962.2 584.4C962.2 594.8 959 604 952.6 612C946.6 620 937 624.2 923.8 624.6C892.2 625 863.8 622.6 838.6 617.4C810.6 677 776.8 726.6 737.2 766.2C698 805.4 659.2 825 620.8 825C585.6 825 559.2 806.4 541.6 769.2C524 731.6 514 681.4 511.6 618.6C487.6 688.2 460.4 740 430 774C400 808 368 825 334 825C295.6 825 266.6 801.2 247 753.6C227.4 705.6 217.6 641.2 217.6 560.4C217.6 501.6 222.8 437 233.2 366.6C236 346.6 241 332.8 248.2 325.2C255.8 317.2 267.6 313.2 283.6 313.2C295.6 313.2 304.8 315.8 311.2 321C318 326.2 321.4 335.8 321.4 349.8C321.4 352.6 321 358 320.2 366C308.2 448 302.2 517.8 302.2 575.4C302.2 629 306.8 670.4 316 699.6C325.2 728.8 337.6 743.4 353.2 743.4C367.2 743.4 384 728.8 403.6 699.6C423.6 670 443.4 626.4 463 568.8C482.6 510.8 499.2 441.8 512.8 361.8C516 343.4 521.8 330.8 530.2 324C539 316.8 550.8 313.2 565.6 313.2C578 313.2 587 316 592.6 321.6C598.6 326.8 601.6 334.8 601.6 345.6C601.6 352 601.2 357 600.4 360.6C589.2 425.8 583.6 491 583.6 556.2C583.6 600.6 585 636 587.8 662.4C591 688.8 596.8 709 605.2 723C614 736.6 626.6 743.4 643 743.4C662.2 743.4 683.6 729 707.2 700.2C730.8 671 752.4 634.8 772 591.6C747.6 576.4 729.2 556.8 716.8 532.8C704.4 508.4 698.2 480.4 698.2 448.8C698.2 417.2 703 390.6 712.6 369C722.6 347 736 330.6 752.8 319.8C770 309 789 303.6 809.8 303.6C835.4 303.6 855.6 312.8 870.4 331.2C885.6 349.6 893.2 374.8 893.2 406.8C893.2 452 883.4 502.2 863.8 557.4C884.2 561 908.2 562.8 935.8 562.8ZM758.8 444.6C758.8 483.8 771.4 512.8 796.6 531.6C812.2 486.8 820 449.8 820 420.6C820 403.8 817.8 391.6 813.4 384C809 376 803 372 795.4 372C784.6 372 775.8 378.4 769 391.2C762.2 403.6 758.8 421.4 758.8 444.6Z" fill="#FBF3D5"/>
<rect x="40" y="4" width="34.4375" height="30" rx="3" fill="#444444"/>
<rect x="40.5" y="4.5" width="33.4375" height="29" rx="2.5" stroke="white" stroke-opacity="0.0980392"/>
<path d="M47.7656 14V22H46.8438V14H47.7656ZM51.8916 22.125C51.3499 22.125 50.8747 21.9961 50.4658 21.7383C50.0596 21.4805 49.7419 21.1198 49.5127 20.6562C49.2861 20.1927 49.1729 19.651 49.1729 19.0312C49.1729 18.4062 49.2861 17.8607 49.5127 17.3945C49.7419 16.9284 50.0596 16.5664 50.4658 16.3086C50.8747 16.0508 51.3499 15.9219 51.8916 15.9219C52.4333 15.9219 52.9072 16.0508 53.3135 16.3086C53.7223 16.5664 54.04 16.9284 54.2666 17.3945C54.4958 17.8607 54.6104 18.4062 54.6104 19.0312C54.6104 19.651 54.4958 20.1927 54.2666 20.6562C54.04 21.1198 53.7223 21.4805 53.3135 21.7383C52.9072 21.9961 52.4333 22.125 51.8916 22.125ZM51.8916 21.2969C52.3031 21.2969 52.6416 21.1914 52.9072 20.9805C53.1729 20.7695 53.3695 20.4922 53.4971 20.1484C53.6247 19.8047 53.6885 19.4323 53.6885 19.0312C53.6885 18.6302 53.6247 18.2565 53.4971 17.9102C53.3695 17.5638 53.1729 17.2839 52.9072 17.0703C52.6416 16.8568 52.3031 16.75 51.8916 16.75C51.4801 16.75 51.1416 16.8568 50.876 17.0703C50.6104 17.2839 50.4137 17.5638 50.2861 17.9102C50.1585 18.2565 50.0947 18.6302 50.0947 19.0312C50.0947 19.4323 50.1585 19.8047 50.2861 20.1484C50.4137 20.4922 50.6104 20.7695 50.876 20.9805C51.1416 21.1914 51.4801 21.2969 51.8916 21.2969ZM58.4395 24.375C57.9941 24.375 57.6113 24.3177 57.291 24.2031C56.9707 24.0911 56.7038 23.9427 56.4902 23.7578C56.2793 23.5755 56.1113 23.3802 55.9863 23.1719L56.7207 22.6563C56.804 22.7656 56.9095 22.8906 57.0371 23.0312C57.1647 23.1745 57.3392 23.2982 57.5605 23.4023C57.7845 23.5091 58.0775 23.5625 58.4395 23.5625C58.9238 23.5625 59.3236 23.4453 59.6387 23.2109C59.9538 22.9766 60.1113 22.6094 60.1113 22.1094V20.8906H60.0332C59.9655 21 59.8691 21.1354 59.7441 21.2969C59.6217 21.4557 59.4447 21.5977 59.2129 21.7227C58.9837 21.8451 58.6738 21.9062 58.2832 21.9062C57.7988 21.9062 57.3639 21.7917 56.9785 21.5625C56.5957 21.3333 56.2923 21 56.0684 20.5625C55.847 20.125 55.7363 19.5937 55.7363 18.9687C55.7363 18.3542 55.8444 17.819 56.0605 17.3633C56.2767 16.9049 56.5775 16.5508 56.9629 16.3008C57.3483 16.0482 57.7936 15.9219 58.2988 15.9219C58.6895 15.9219 58.9993 15.987 59.2285 16.1172C59.4603 16.2448 59.6374 16.3906 59.7598 16.5547C59.8848 16.7161 59.9811 16.849 60.0488 16.9531H60.1426V16H61.0332V22.1719C61.0332 22.6875 60.916 23.1068 60.6816 23.4297C60.4499 23.7552 60.1374 23.9935 59.7441 24.1445C59.3535 24.2982 58.9186 24.375 58.4395 24.375ZM58.4082 21.0781C58.778 21.0781 59.0905 20.9935 59.3457 20.8242C59.6009 20.6549 59.7949 20.4115 59.9277 20.0938C60.0605 19.776 60.127 19.3958 60.127 18.9531C60.127 18.5208 60.0618 18.1393 59.9316 17.8086C59.8014 17.4779 59.6087 17.2187 59.3535 17.0312C59.0983 16.8437 58.7832 16.75 58.4082 16.75C58.0176 16.75 57.6921 16.849 57.4316 17.0469C57.1738 17.2448 56.9798 17.5104 56.8496 17.8438C56.722 18.1771 56.6582 18.5469 56.6582 18.9531C56.6582 19.3698 56.7233 19.7383 56.8535 20.0586C56.9863 20.3763 57.1816 20.6263 57.4395 20.8086C57.6999 20.9883 58.0228 21.0781 58.4082 21.0781ZM65.1582 22.125C64.6165 22.125 64.1413 21.9961 63.7324 21.7383C63.3262 21.4805 63.0085 21.1198 62.7793 20.6562C62.5527 20.1927 62.4395 19.651 62.4395 19.0312C62.4395 18.4062 62.5527 17.8607 62.7793 17.3945C63.0085 16.9284 63.3262 16.5664 63.7324 16.3086C64.1413 16.0508 64.6165 15.9219 65.1582 15.9219C65.6999 15.9219 66.1738 16.0508 66.5801 16.3086C66.9889 16.5664 67.3066 16.9284 67.5332 17.3945C67.7624 17.8607 67.877 18.4062 67.877 19.0312C67.877 19.651 67.7624 20.1927 67.5332 20.6562C67.3066 21.1198 66.9889 21.4805 66.5801 21.7383C66.1738 21.9961 65.6999 22.125 65.1582 22.125ZM65.1582 21.2969C65.5697 21.2969 65.9082 21.1914 66.1738 20.9805C66.4395 20.7695 66.6361 20.4922 66.7637 20.1484C66.8913 19.8047 66.9551 19.4323 66.9551 19.0312C66.9551 18.6302 66.8913 18.2565 66.7637 17.9102C66.6361 17.5638 66.4395 17.2839 66.1738 17.0703C65.9082 16.8568 65.5697 16.75 65.1582 16.75C64.7467 16.75 64.4082 16.8568 64.1426 17.0703C63.877 17.2839 63.6803 17.5638 63.5527 17.9102C63.4251 18.2565 63.3613 18.6302 63.3613 19.0312C63.3613 19.4323 63.4251 19.8047 63.5527 20.1484C63.6803 20.4922 63.877 20.7695 64.1426 20.9805C64.4082 21.1914 64.7467 21.2969 65.1582 21.2969Z" fill="white"/>
</svg>
