<svg width="745" height="522" viewBox="0 0 745 522" fill="none" xmlns="http://www.w3.org/2000/svg">
<path d="M718.261 259.8C727.461 259.8 734.061 261.8 738.061 265.8C742.461 269.8 744.661 275 744.661 281.4C744.661 291.8 741.461 301 735.061 309C729.061 317 719.461 321.2 706.261 321.6C674.661 322 646.261 319.6 621.061 314.4C593.061 374 559.261 423.6 519.661 463.2C480.461 502.4 441.661 522 403.261 522C368.061 522 341.661 503.4 324.061 466.2C306.461 428.6 296.461 378.4 294.061 315.6C270.061 385.2 242.861 437 212.461 471C182.461 505 150.461 522 116.461 522C78.0609 522 49.0609 498.2 29.4609 450.6C9.86094 402.6 0.0609416 338.2 0.0609416 257.4C0.0609416 198.6 5.26094 134 15.6609 63.6C18.4609 43.6 23.4609 29.8 30.6609 22.2C38.2609 14.2 50.0609 10.2 66.0609 10.2C78.0609 10.2 87.2609 12.8 93.6609 18C100.461 23.2 103.861 32.8 103.861 46.8C103.861 49.6 103.461 55 102.661 63C90.661 145 84.661 214.8 84.661 272.4C84.661 326 89.261 367.4 98.461 396.6C107.661 425.8 120.061 440.4 135.661 440.4C149.661 440.4 166.461 425.8 186.061 396.6C206.061 367 225.861 323.4 245.461 265.8C265.061 207.8 281.661 138.8 295.261 58.8C298.461 40.4 304.261 27.8 312.661 21C321.461 13.8 333.261 10.2 348.061 10.2C360.461 10.2 369.461 13 375.061 18.6C381.061 23.8 384.061 31.8 384.061 42.6C384.061 49 383.661 54 382.861 57.6C371.661 122.8 366.061 188 366.061 253.2C366.061 297.6 367.461 333 370.261 359.4C373.461 385.8 379.261 406 387.661 420C396.461 433.6 409.061 440.4 425.461 440.4C444.661 440.4 466.061 426 489.661 397.2C513.261 368 534.861 331.8 554.461 288.6C530.061 273.4 511.661 253.8 499.261 229.8C486.861 205.4 480.661 177.4 480.661 145.8C480.661 114.2 485.461 87.6 495.061 66C505.061 44 518.461 27.6 535.261 16.8C552.461 5.99999 571.461 0.599987 592.261 0.599987C617.861 0.599987 638.061 9.79999 652.861 28.2C668.061 46.6 675.661 71.8 675.661 103.8C675.661 149 665.861 199.2 646.261 254.4C666.661 258 690.661 259.8 718.261 259.8ZM541.261 141.6C541.261 180.8 553.861 209.8 579.061 228.6C594.661 183.8 602.461 146.8 602.461 117.6C602.461 100.8 600.261 88.6 595.861 81C591.461 73 585.461 69 577.861 69C567.061 69 558.261 75.4 551.461 88.2C544.661 100.6 541.261 118.4 541.261 141.6Z" fill="#FBFBFB"/>
</svg>
