<svg width="1035" height="291" viewBox="0 0 1035 291" fill="none" xmlns="http://www.w3.org/2000/svg">
<path d="M359.713 152.4C364.313 152.4 367.613 153.4 369.613 155.4C371.813 157.4 372.913 160 372.913 163.2C372.913 168.4 371.313 173 368.113 177C365.113 181 360.313 183.1 353.713 183.3C337.913 183.5 323.713 182.3 311.113 179.7C297.113 209.5 280.213 234.3 260.413 254.1C240.813 273.7 221.413 283.5 202.213 283.5C184.613 283.5 171.413 274.2 162.613 255.6C153.813 236.8 148.813 211.7 147.613 180.3C135.612 215.1 122.013 241 106.813 258C91.8125 275 75.8125 283.5 58.8125 283.5C39.6125 283.5 25.1125 271.6 15.3125 247.8C5.5125 223.8 0.612502 191.6 0.612502 151.2C0.612502 121.8 3.2125 89.5 8.4125 54.3C9.8125 44.3 12.3125 37.4 15.9125 33.6C19.7125 29.6 25.6125 27.6 33.6125 27.6C39.6125 27.6 44.2125 28.9 47.4125 31.5C50.8125 34.1 52.5125 38.9 52.5125 45.9C52.5125 47.3 52.3125 50 51.9125 54C45.9125 95 42.9125 129.9 42.9125 158.7C42.9125 185.5 45.2125 206.2 49.8125 220.8C54.4125 235.4 60.6125 242.7 68.4125 242.7C75.4125 242.7 83.8125 235.4 93.6125 220.8C103.613 206 113.513 184.2 123.313 155.4C133.113 126.4 141.413 91.9 148.213 51.9C149.813 42.7 152.713 36.4 156.913 33C161.313 29.4 167.213 27.6 174.613 27.6C180.813 27.6 185.313 29 188.113 31.8C191.113 34.4 192.613 38.4 192.613 43.8C192.613 47 192.413 49.5 192.013 51.3C186.413 83.9 183.613 116.5 183.613 149.1C183.613 171.3 184.313 189 185.713 202.2C187.313 215.4 190.213 225.5 194.413 232.5C198.813 239.3 205.113 242.7 213.313 242.7C222.913 242.7 233.613 235.5 245.413 221.1C257.213 206.5 268.013 188.4 277.813 166.8C265.613 159.2 256.413 149.4 250.213 137.4C244.013 125.2 240.913 111.2 240.913 95.4C240.913 79.6 243.313 66.3 248.113 55.5C253.113 44.5 259.813 36.3 268.213 30.9C276.812 25.5 286.313 22.8 296.713 22.8C309.513 22.8 319.613 27.4 327.013 36.6C334.613 45.8 338.413 58.4 338.413 74.4C338.413 97 333.513 122.1 323.713 149.7C333.913 151.5 345.913 152.4 359.713 152.4ZM271.213 93.3C271.213 112.9 277.513 127.4 290.113 136.8C297.913 114.4 301.812 95.9 301.812 81.3C301.812 72.9 300.713 66.8 298.513 63C296.313 59 293.313 57 289.513 57C284.113 57 279.713 60.2 276.313 66.6C272.913 72.8 271.213 81.7 271.213 93.3ZM477.552 215.1C480.152 215.1 482.152 216.3 483.552 218.7C485.152 221.1 485.952 224.4 485.952 228.6C485.952 236.6 484.052 242.8 480.252 247.2C472.852 256.2 462.352 264.5 448.752 272.1C435.352 279.7 420.952 283.5 405.552 283.5C384.552 283.5 368.252 277.8 356.652 266.4C345.052 255 339.252 239.4 339.252 219.6C339.252 205.8 342.152 193 347.952 181.2C353.752 169.2 361.752 159.7 371.952 152.7C382.352 145.7 394.052 142.2 407.052 142.2C418.652 142.2 427.952 145.7 434.952 152.7C441.952 159.5 445.452 168.8 445.452 180.6C445.452 194.4 440.452 206.3 430.452 216.3C420.652 226.1 403.952 233.9 380.352 239.7C385.352 248.9 394.852 253.5 408.852 253.5C417.852 253.5 428.052 250.4 439.452 244.2C451.052 237.8 461.052 229.5 469.452 219.3C471.852 216.5 474.552 215.1 477.552 215.1ZM401.952 171.6C394.552 171.6 388.252 175.9 383.052 184.5C378.052 193.1 375.552 203.5 375.552 215.7V216.3C387.352 213.5 396.652 209.3 403.452 203.7C410.252 198.1 413.652 191.6 413.652 184.2C413.652 180.4 412.552 177.4 410.352 175.2C408.352 172.8 405.552 171.6 401.952 171.6ZM630.46 215.1C633.06 215.1 635.06 216.3 636.46 218.7C638.06 221.1 638.86 224.4 638.86 228.6C638.86 236.6 636.96 242.8 633.16 247.2C624.96 257.2 615.96 265.8 606.16 273C596.36 280 586.66 283.5 577.06 283.5C561.86 283.5 550.26 274.6 542.26 256.8C533.86 267.4 526.46 274.5 520.06 278.1C513.86 281.7 506.56 283.5 498.16 283.5C485.96 283.5 475.86 279 467.86 270C460.06 260.8 456.16 248.9 456.16 234.3C456.16 218.3 459.56 203.5 466.36 189.9C473.16 176.1 482.46 164.9 494.26 156.3C506.26 147.5 519.66 142.3 534.46 140.7C538.26 101.9 545.46 68.8 556.06 41.4C566.86 13.8 580.96 -1.71661e-05 598.36 -1.71661e-05C606.96 -1.71661e-05 614.06 3.89999 619.66 11.7C625.46 19.5 628.36 31.3 628.36 47.1C628.36 69.5 622.86 95.7 611.86 125.7C600.86 155.7 586.16 186.5 567.76 218.1C568.56 229.7 570.26 238 572.86 243C575.66 248 579.16 250.5 583.36 250.5C588.76 250.5 594.26 248.1 599.86 243.3C605.46 238.5 612.96 230.5 622.36 219.3C624.76 216.5 627.46 215.1 630.46 215.1ZM595.06 29.4C591.26 29.4 587.46 36.2 583.66 49.8C579.86 63.2 576.56 80.8 573.76 102.6C571.16 124.4 569.26 147.2 568.06 171C590.46 122.2 601.66 83 601.66 53.4C601.66 45.8 600.96 39.9 599.56 35.7C598.36 31.5 596.86 29.4 595.06 29.4ZM508.66 253.2C512.46 253.2 516.26 251.7 520.06 248.7C523.86 245.5 528.66 239.7 534.46 231.3C532.46 220.5 531.46 208.4 531.46 195C531.46 190.2 531.66 182.4 532.06 171.6C521.06 175 511.86 182.4 504.46 193.8C497.26 205 493.66 217.5 493.66 231.3C493.66 245.9 498.66 253.2 508.66 253.2ZM728.155 215.1C730.755 215.1 732.755 216.3 734.155 218.7C735.755 221.1 736.555 224.4 736.555 228.6C736.555 236.6 734.655 242.8 730.855 247.2C722.255 257.8 712.855 266.5 702.655 273.3C692.655 280.1 681.255 283.5 668.455 283.5C650.855 283.5 637.755 275.5 629.155 259.5C620.755 243.5 616.555 222.8 616.555 197.4C616.555 173 619.655 145.2 625.855 114C632.255 82.8 641.555 56 653.755 33.6C666.155 11.2 680.855 -1.71661e-05 697.855 -1.71661e-05C707.455 -1.71661e-05 714.955 4.49998 720.355 13.5C725.955 22.3 728.755 35 728.755 51.6C728.755 75.4 722.155 103 708.955 134.4C695.755 165.8 677.855 196.9 655.255 227.7C656.655 235.9 658.955 241.8 662.155 245.4C665.355 248.8 669.555 250.5 674.755 250.5C682.955 250.5 690.155 248.2 696.355 243.6C702.555 238.8 710.455 230.7 720.055 219.3C722.455 216.5 725.155 215.1 728.155 215.1ZM691.255 29.7C686.655 29.7 681.455 38 675.655 54.6C669.855 71.2 664.755 91.8 660.355 116.4C655.955 141 653.555 164.6 653.155 187.2C667.355 163.8 678.655 140.4 687.055 117C695.455 93.4 699.655 71.9 699.655 52.5C699.655 37.3 696.855 29.7 691.255 29.7ZM751.606 122.4C743.206 122.4 736.906 120.5 732.706 116.7C728.506 112.7 726.406 107.2 726.406 100.2C726.406 93.2 729.106 87.4 734.506 82.8C740.106 78 747.006 75.6 755.206 75.6C762.606 75.6 768.606 77.4 773.206 81C777.806 84.6 780.106 89.7 780.106 96.3C780.106 104.3 777.506 110.7 772.306 115.5C767.106 120.1 760.206 122.4 751.606 122.4ZM749.206 283.5C736.206 283.5 726.706 278.9 720.706 269.7C714.906 260.5 712.006 248.3 712.006 233.1C712.006 224.1 713.106 212.6 715.306 198.6C717.706 184.4 720.706 171.2 724.306 159C726.106 152.6 728.506 148.2 731.506 145.8C734.506 143.4 739.306 142.2 745.906 142.2C756.106 142.2 761.206 145.6 761.206 152.4C761.206 157.4 759.306 169 755.506 187.2C750.706 209.2 748.306 224.1 748.306 231.9C748.306 237.9 749.106 242.5 750.706 245.7C752.306 248.9 755.006 250.5 758.806 250.5C762.406 250.5 766.906 248 772.306 243C777.706 238 784.906 230.1 793.906 219.3C796.306 216.5 799.006 215.1 802.006 215.1C804.606 215.1 806.606 216.3 808.006 218.7C809.606 221.1 810.406 224.4 810.406 228.6C810.406 236.6 808.506 242.8 804.706 247.2C784.906 271.4 766.406 283.5 749.206 283.5ZM841.934 290.1C831.534 290.1 823.534 287.7 817.934 282.9C812.534 278.1 809.834 272.7 809.834 266.7C809.834 261.5 811.734 257 815.534 253.2C819.334 249.4 824.934 247.5 832.334 247.5C834.934 247.5 837.934 247.8 841.334 248.4C844.934 248.8 847.634 249.1 849.434 249.3C849.234 244.1 848.034 239.2 845.834 234.6C843.834 230 841.234 225.6 838.034 221.4C834.834 217 831.834 213.2 829.034 210C822.834 221.8 816.634 231.6 810.434 239.4C804.434 247.2 797.834 254.6 790.634 261.6C787.034 265.2 783.234 267 779.234 267C776.034 267 773.434 265.9 771.434 263.7C769.434 261.3 768.434 258.4 768.434 255C768.434 251 769.834 247.3 772.634 243.9L776.534 239.1C787.534 225.5 795.834 214.3 801.434 205.5C804.834 199.7 808.834 192 813.434 182.4C818.034 172.6 822.534 162.5 826.934 152.1C830.734 143.3 838.634 138.9 850.634 138.9C856.234 138.9 860.134 139.4 862.334 140.4C864.534 141.4 865.634 143 865.634 145.2C865.634 146.4 865.234 148.3 864.434 150.9C863.634 153.5 862.534 156.1 861.134 158.7C857.534 165.9 855.734 172 855.734 177C855.734 180 856.734 183.3 858.734 186.9C860.934 190.5 864.234 195 868.634 200.4C875.034 208.8 879.834 216 883.034 222C886.434 227.8 888.134 234.2 888.134 241.2C888.134 243.2 887.934 246 887.534 249.6C897.334 245.8 908.834 235.7 922.034 219.3C924.434 216.5 927.134 215.1 930.134 215.1C932.734 215.1 934.734 216.3 936.134 218.7C937.734 221.1 938.534 224.4 938.534 228.6C938.534 236.2 936.634 242.4 932.834 247.2C922.834 259.6 913.234 268.1 904.034 272.7C895.034 277.1 883.834 279.5 870.434 279.9C862.434 286.7 852.934 290.1 841.934 290.1ZM963.662 170.7C963.262 180.7 963.062 188.5 963.062 194.1C963.062 208.5 963.762 219.8 965.162 228C966.762 236 969.262 241.8 972.662 245.4C976.262 248.8 981.162 250.5 987.362 250.5C990.562 250.5 994.362 249.5 998.762 247.5C1003.16 245.5 1007.16 242.9 1010.76 239.7C1012.96 237.7 1015.16 236.7 1017.36 236.7C1019.76 236.7 1021.66 238.1 1023.06 240.9C1024.66 243.5 1025.46 246.7 1025.46 250.5C1025.46 254.3 1024.66 258 1023.06 261.6C1021.66 265.2 1019.46 268.2 1016.46 270.6C1006.06 279.2 994.262 283.5 981.062 283.5C962.062 283.5 948.162 275.6 939.362 259.8C930.562 243.8 926.162 223 926.162 197.4C926.162 188.6 926.462 179.7 927.062 170.7H915.362C909.362 170.7 905.262 169.6 903.062 167.4C901.062 165.2 900.062 161.7 900.062 156.9C900.062 145.7 904.562 140.1 913.562 140.1H930.662C934.062 118.1 939.262 98 946.262 79.8C953.262 61.6 961.662 47.1 971.462 36.3C981.462 25.5 992.162 20.1 1003.56 20.1C1011.96 20.1 1018.56 23.8 1023.36 31.2C1028.16 38.6 1030.56 47.9 1030.56 59.1C1030.56 90.1 1017.56 117.1 991.562 140.1H1025.16C1028.36 140.1 1030.66 140.8 1032.06 142.2C1033.46 143.6 1034.16 146.2 1034.16 150C1034.16 163.8 1022.86 170.7 1000.26 170.7H963.662ZM995.462 48.9C992.462 48.9 989.062 52.7 985.262 60.3C981.662 67.7 978.162 78.1 974.762 91.5C971.562 104.7 968.862 119.4 966.662 135.6C978.462 125.4 987.262 114 993.062 101.4C999.062 88.6 1002.06 77 1002.06 66.6C1002.06 54.8 999.862 48.9 995.462 48.9Z" fill="#8685EF"/>
</svg>
